<svg xmlns="http://www.w3.org/2000/svg" version="1.1" xmlns:xlink="http://www.w3.org/1999/xlink" width="200" height="200"><svg xmlns="http://www.w3.org/2000/svg" version="1.1" xmlns:xlink="http://www.w3.org/1999/xlink" viewBox="0 0 200 200"><rect width="200" height="200" fill="url('#gradient')"></rect><defs><linearGradient id="SvgjsLinearGradient1001" gradientTransform="rotate(86 0.5 0.5)"><stop offset="0%" stop-color="#3c4845"></stop><stop offset="100%" stop-color="#1b7974"></stop></linearGradient></defs><g><g fill="#3df383" transform="matrix(1.8427708615801799,0,0,1.8427708615801799,25.023389475342384,113.63884780420176)" stroke="#c2d02d" stroke-width="0.25"><path d="M5.75 0L1.07 0L1.07-14.22L5.65-14.22Q7.54-14.22 9.04-13.36Q10.55-12.51 11.39-10.95Q12.24-9.39 12.25-7.46L12.25-7.46L12.25-6.81Q12.25-4.85 11.42-3.31Q10.60-1.76 9.10-0.88Q7.60-0.01 5.75 0L5.75 0ZM5.65-11.57L4.50-11.57L4.50-2.64L5.69-2.64Q7.17-2.64 7.96-3.69Q8.75-4.74 8.75-6.81L8.75-6.81L8.75-7.42Q8.75-9.48 7.96-10.53Q7.17-11.57 5.65-11.57L5.65-11.57ZM18.96 0.20L18.96 0.20Q16.53 0.20 15.03-1.25Q13.53-2.71 13.53-5.03L13.53-5.03L13.53-5.30Q13.53-6.92 14.13-8.16Q14.73-9.40 15.88-10.08Q17.03-10.76 18.61-10.76L18.61-10.76Q20.84-10.76 22.13-9.38Q23.42-8.00 23.42-5.53L23.42-5.53L23.42-4.25L16.88-4.25Q17.05-3.36 17.65-2.85Q18.24-2.34 19.19-2.34L19.19-2.34Q20.75-2.34 21.63-3.44L21.63-3.44L23.13-1.66Q22.52-0.81 21.39-0.31Q20.26 0.20 18.96 0.20ZM18.59-8.22L18.59-8.22Q17.15-8.22 16.88-6.31L16.88-6.31L20.20-6.31L20.20-6.56Q20.21-7.35 19.79-7.79Q19.38-8.22 18.59-8.22ZM34.55-5.36L34.55-5.20Q34.55-2.60 33.48-1.20Q32.40 0.20 30.45 0.20L30.45 0.20Q28.84 0.20 27.85-1.08L27.85-1.08L27.71 0L24.77 0L24.77-15L28.06-15L28.06-9.72Q28.97-10.76 30.43-10.76L30.43-10.76Q32.40-10.76 33.48-9.35Q34.55-7.93 34.55-5.36L34.55-5.36ZM31.25-5.40L31.25-5.40Q31.25-6.92 30.84-7.57Q30.44-8.22 29.60-8.22L29.60-8.22Q28.49-8.22 28.06-7.37L28.06-7.37L28.06-3.17Q28.48-2.33 29.62-2.33L29.62-2.33Q30.78-2.33 31.09-3.47L31.09-3.47Q31.25-4.02 31.25-5.40ZM36.54-13.19L39.83-13.19L39.83-10.57L41.57-10.57L41.57-8.28L39.83-8.28L39.83-3.45Q39.83-2.85 40.05-2.62Q40.26-2.38 40.90-2.38L40.90-2.38Q41.39-2.38 41.72-2.44L41.72-2.44L41.72-0.09Q40.83 0.20 39.86 0.20L39.86 0.20Q38.16 0.20 37.35-0.61Q36.54-1.41 36.54-3.04L36.54-3.04L36.54-8.28L35.20-8.28L35.20-10.57L36.54-10.57L36.54-13.19ZM49.30-7.40L49.30-4.85L43.43-4.85L43.43-7.40L49.30-7.40ZM52.01-14.22L56.51-14.22L59.69-4.33L62.85-14.22L67.36-14.22L67.36 0L63.93 0L63.93-3.32L64.26-10.12L60.82 0L58.55 0L55.11-10.13L55.44-3.32L55.44 0L52.01 0L52.01-14.22ZM76.88-3.78L76.88-3.78Q76.88-4.53 76.34-4.95Q75.81-5.37 74.47-5.82Q73.13-6.27 72.29-6.69L72.29-6.69Q69.52-8.05 69.52-10.42L69.52-10.42Q69.52-11.60 70.21-12.50Q70.90-13.41 72.16-13.91Q73.42-14.41 74.99-14.41L74.99-14.41Q76.52-14.41 77.74-13.87Q78.96-13.32 79.63-12.31Q80.30-11.30 80.30-10L80.30-10L76.88-10Q76.88-10.87 76.35-11.35Q75.82-11.83 74.91-11.83L74.91-11.83Q73.99-11.83 73.46-11.42Q72.93-11.02 72.93-10.39L72.93-10.39Q72.93-9.84 73.52-9.40Q74.10-8.96 75.58-8.48Q77.05-8.01 78.00-7.46L78.00-7.46Q80.30-6.13 80.30-3.80L80.30-3.80Q80.30-1.93 78.90-0.87Q77.49 0.20 75.04 0.20L75.04 0.20Q73.31 0.20 71.91-0.42Q70.51-1.04 69.80-2.12Q69.09-3.20 69.09-4.61L69.09-4.61L72.53-4.61Q72.53-3.47 73.12-2.92Q73.71-2.38 75.04-2.38L75.04-2.38Q75.89-2.38 76.38-2.75Q76.88-3.12 76.88-3.78Z"></path></g></g></svg><style>@media (prefers-color-scheme: light) { :root { filter: none; } }
@media (prefers-color-scheme: dark) { :root { filter: none; } }
</style></svg>